<svg width="36" height="43" viewBox="0 0 36 43" fill="none" xmlns="http://www.w3.org/2000/svg">
<path d="M14.4 43V32.8233C13.272 33.2294 12.072 33.4444 10.8 33.4444C4.8 33.4444 0 28.6667 0 22.6944C0 19.6606 1.2 16.9372 3.264 14.9783C2.712 13.6883 2.4 12.255 2.4 10.75C2.4 4.77778 7.2 0 13.2 0C16.944 0 20.256 1.91111 22.2 4.77778H22.8C24.5334 4.77778 26.2499 5.11763 27.8514 5.77792C29.4529 6.43821 30.9081 7.40601 32.1338 8.62607C33.3595 9.84613 34.3318 11.2945 34.9952 12.8886C35.6586 14.4827 36 16.1912 36 17.9167C36 19.6421 35.6586 21.3506 34.9952 22.9447C34.3318 24.5388 33.3595 25.9872 32.1338 27.2073C30.9081 28.4273 29.4529 29.3951 27.8514 30.0554C26.2499 30.7157 24.5334 31.0556 22.8 31.0556C21.6 31.0556 20.4 30.8883 19.2 30.5539V43H14.4Z" fill="#5B5858"/>
</svg>
