<svg width="51" height="23" viewBox="0 0 51 23" fill="none" xmlns="http://www.w3.org/2000/svg">
<path d="M5.75586 9.27051H8.08496C9.93066 9.27051 10.8535 8.36719 10.8535 6.56055C10.8535 5.85742 10.6338 5.28613 10.1943 4.84668C9.75488 4.39746 9.13477 4.17285 8.33398 4.17285C7.67969 4.17285 7.1084 4.36328 6.62012 4.74414C6.1416 5.125 5.90234 5.59863 5.90234 6.16504H0.96582C0.96582 5.04199 1.27832 4.04102 1.90332 3.16211C2.52832 2.2832 3.39258 1.59961 4.49609 1.11133C5.60938 0.613281 6.83008 0.364258 8.1582 0.364258C10.5312 0.364258 12.3965 0.90625 13.7539 1.99023C15.1113 3.07422 15.79 4.56348 15.79 6.45801C15.79 7.37598 15.5068 8.24512 14.9404 9.06543C14.3838 9.87598 13.5684 10.5352 12.4941 11.043C13.627 11.4531 14.5156 12.0781 15.1602 12.918C15.8047 13.748 16.127 14.7783 16.127 16.0088C16.127 17.9131 15.3945 19.4365 13.9297 20.5791C12.4648 21.7217 10.541 22.293 8.1582 22.293C6.76172 22.293 5.46289 22.0293 4.26172 21.502C3.07031 20.9648 2.16699 20.2275 1.55176 19.29C0.936523 18.3428 0.628906 17.2686 0.628906 16.0674H5.59473C5.59473 16.7217 5.8584 17.2881 6.38574 17.7666C6.91309 18.2451 7.5625 18.4844 8.33398 18.4844C9.20312 18.4844 9.89648 18.2451 10.4141 17.7666C10.9316 17.2783 11.1904 16.6582 11.1904 15.9062C11.1904 14.832 10.9219 14.0703 10.3848 13.6211C9.84766 13.1719 9.10547 12.9473 8.1582 12.9473H5.75586V9.27051ZM18.9102 11.5703L20.2139 0.671875H32.6797V4.50977H24.2275L23.7441 8.74316C24.0957 8.53809 24.5547 8.35742 25.1211 8.20117C25.6973 8.04492 26.2588 7.9668 26.8057 7.9668C28.9248 7.9668 30.5508 8.59668 31.6836 9.85645C32.8262 11.1064 33.3975 12.8643 33.3975 15.1299C33.3975 16.4971 33.0898 17.7373 32.4746 18.8506C31.8691 19.9541 31.0146 20.8037 29.9111 21.3994C28.8076 21.9951 27.5039 22.293 26 22.293C24.6621 22.293 23.4072 22.0195 22.2354 21.4727C21.0635 20.916 20.1455 20.1592 19.4814 19.2021C18.8174 18.2354 18.4902 17.1465 18.5 15.9355H23.4512C23.5 16.7168 23.749 17.3369 24.1982 17.7959C24.6475 18.2549 25.2383 18.4844 25.9707 18.4844C27.6309 18.4844 28.4609 17.2539 28.4609 14.793C28.4609 12.5176 27.4453 11.3799 25.4141 11.3799C24.2617 11.3799 23.4023 11.751 22.8359 12.4932L18.9102 11.5703ZM50.7998 13.2842C50.7998 16.165 50.1504 18.3867 48.8516 19.9492C47.5625 21.5117 45.7412 22.293 43.3877 22.293C41.0146 22.293 39.1787 21.5068 37.8799 19.9346C36.5811 18.3623 35.9316 16.1455 35.9316 13.2842V9.3877C35.9316 6.50684 36.5762 4.28516 37.8652 2.72266C39.1641 1.16016 40.9951 0.378906 43.3584 0.378906C45.7217 0.378906 47.5527 1.16504 48.8516 2.7373C50.1504 4.30957 50.7998 6.53125 50.7998 9.40234V13.2842ZM45.8633 8.75781C45.8633 7.22461 45.6631 6.08203 45.2627 5.33008C44.8623 4.56836 44.2275 4.1875 43.3584 4.1875C42.5088 4.1875 41.8887 4.53906 41.498 5.24219C41.1172 5.94531 40.9121 7.00977 40.8828 8.43555V13.8848C40.8828 15.4766 41.083 16.6436 41.4834 17.3857C41.8838 18.1182 42.5186 18.4844 43.3877 18.4844C44.2275 18.4844 44.8477 18.1279 45.248 17.415C45.6484 16.6924 45.8535 15.5645 45.8633 14.0312V8.75781Z" fill="#5B5858"/>
</svg>
