<svg width="38" height="43" viewBox="0 0 38 43" fill="none" xmlns="http://www.w3.org/2000/svg">
<path d="M20.0075 9.31667C24.2271 9.31667 25.7916 11.3472 25.9339 14.3333H31.1728C31.0069 10.2244 28.5178 6.45 23.5633 5.23167V0H16.4517V5.16C15.5271 5.35111 14.6737 5.66167 13.844 6.02L17.4236 9.62722C18.1822 9.43611 19.0593 9.31667 20.0075 9.31667ZM3.34248 2.19778L0 5.56611L8.15471 13.7839C8.15471 18.7528 11.8528 21.4761 17.4236 23.1244L25.7442 31.5094C24.9382 32.68 23.2551 33.6833 20.0075 33.6833C15.1241 33.6833 13.204 31.4856 12.9432 28.6667H7.72801C8.01248 33.8983 11.9002 36.8367 16.4517 37.8161V43H23.5633V37.8639C25.8391 37.4339 27.9014 36.55 29.3949 35.1883L34.6575 40.4917L38 37.1233L3.34248 2.19778Z" fill="#5B5858"/>
</svg>
