<svg width="51" height="23" viewBox="0 0 51 23" fill="none" xmlns="http://www.w3.org/2000/svg">
<path d="M16.127 22H1.24414V18.7773L8.09961 11.5703C9.78906 9.64648 10.6338 8.11816 10.6338 6.98535C10.6338 6.06738 10.4336 5.36914 10.0332 4.89062C9.63281 4.41211 9.05176 4.17285 8.29004 4.17285C7.53809 4.17285 6.92773 4.49512 6.45898 5.13965C5.99023 5.77441 5.75586 6.57031 5.75586 7.52734H0.804688C0.804688 6.21875 1.13184 5.0127 1.78613 3.90918C2.44043 2.7959 3.34863 1.92676 4.51074 1.30176C5.67285 0.676758 6.97168 0.364258 8.40723 0.364258C10.7119 0.364258 12.4844 0.896484 13.7246 1.96094C14.9746 3.02539 15.5996 4.55371 15.5996 6.5459C15.5996 7.38574 15.4434 8.20605 15.1309 9.00684C14.8184 9.79785 14.3301 10.6328 13.666 11.5117C13.0117 12.3809 11.9521 13.5479 10.4873 15.0127L7.7334 18.1914H16.127V22ZM33.5 22H18.6172V18.7773L25.4727 11.5703C27.1621 9.64648 28.0068 8.11816 28.0068 6.98535C28.0068 6.06738 27.8066 5.36914 27.4062 4.89062C27.0059 4.41211 26.4248 4.17285 25.6631 4.17285C24.9111 4.17285 24.3008 4.49512 23.832 5.13965C23.3633 5.77441 23.1289 6.57031 23.1289 7.52734H18.1777C18.1777 6.21875 18.5049 5.0127 19.1592 3.90918C19.8135 2.7959 20.7217 1.92676 21.8838 1.30176C23.0459 0.676758 24.3447 0.364258 25.7803 0.364258C28.085 0.364258 29.8574 0.896484 31.0977 1.96094C32.3477 3.02539 32.9727 4.55371 32.9727 6.5459C32.9727 7.38574 32.8164 8.20605 32.5039 9.00684C32.1914 9.79785 31.7031 10.6328 31.0391 11.5117C30.3848 12.3809 29.3252 13.5479 27.8604 15.0127L25.1064 18.1914H33.5V22ZM50.7998 13.2842C50.7998 16.165 50.1504 18.3867 48.8516 19.9492C47.5625 21.5117 45.7412 22.293 43.3877 22.293C41.0146 22.293 39.1787 21.5068 37.8799 19.9346C36.5811 18.3623 35.9316 16.1455 35.9316 13.2842V9.3877C35.9316 6.50684 36.5762 4.28516 37.8652 2.72266C39.1641 1.16016 40.9951 0.378906 43.3584 0.378906C45.7217 0.378906 47.5527 1.16504 48.8516 2.7373C50.1504 4.30957 50.7998 6.53125 50.7998 9.40234V13.2842ZM45.8633 8.75781C45.8633 7.22461 45.6631 6.08203 45.2627 5.33008C44.8623 4.56836 44.2275 4.1875 43.3584 4.1875C42.5088 4.1875 41.8887 4.53906 41.498 5.24219C41.1172 5.94531 40.9121 7.00977 40.8828 8.43555V13.8848C40.8828 15.4766 41.083 16.6436 41.4834 17.3857C41.8838 18.1182 42.5186 18.4844 43.3877 18.4844C44.2275 18.4844 44.8477 18.1279 45.248 17.415C45.6484 16.6924 45.8535 15.5645 45.8633 14.0312V8.75781Z" fill="#5B5858"/>
</svg>
