<svg width="36" height="34" viewBox="0 0 36 34" fill="none" xmlns="http://www.w3.org/2000/svg">
<path fill-rule="evenodd" clip-rule="evenodd" d="M0.964286 0H35.0357C35.5683 0 36 0.431725 36 0.964286V5.46429C36 5.99685 35.5683 6.42857 35.0357 6.42857H0.964286C0.431725 6.42857 0 5.99685 0 5.46429V0.964286C0 0.431725 0.431725 0 0.964286 0ZM4.96125 31.7017L2.57143 9H33.4286L31.0387 31.7017C30.9889 32.1757 30.7653 32.6144 30.4111 32.9333C30.0569 33.2522 29.5972 33.4286 29.1206 33.4286H6.87937C6.40278 33.4286 5.94306 33.2522 5.58887 32.9333C5.23467 32.6144 5.01109 32.1757 4.96125 31.7017ZM18 21.9745L22.5 26.4745L24.5459 24.4286L20.0459 19.9286L24.5459 15.4286L22.5 13.3827L18 17.8827L13.5 13.3827L11.4541 15.4286L15.9541 19.9286L11.4541 24.4286L13.5 26.4745L18 21.9745Z" fill="#5B5858"/>
</svg>
