<svg width="50" height="36" viewBox="0 0 50 36" fill="none" xmlns="http://www.w3.org/2000/svg">
<path d="M4.54545 0C3.33993 0 2.18377 0.474106 1.33133 1.31802C0.478895 2.16193 0 3.30653 0 4.5V29.25H4.54545C4.54545 31.0402 5.2638 32.7571 6.54245 34.023C7.82111 35.2888 9.55534 36 11.3636 36C13.1719 36 14.9062 35.2888 16.1848 34.023C17.4635 32.7571 18.1818 31.0402 18.1818 29.25H31.8182C31.8182 31.0402 32.5365 32.7571 33.8152 34.023C35.0938 35.2888 36.8281 36 38.6364 36C40.4447 36 42.1789 35.2888 43.4575 34.023C44.7362 32.7571 45.4545 31.0402 45.4545 29.25H50V18L43.1818 9H36.3636V0H4.54545ZM20.4545 4.5L29.5455 13.5L20.4545 22.5V15.75H6.81818V11.25H20.4545V4.5ZM36.3636 12.375H42.0455L46.5227 18H36.3636V12.375ZM11.3636 25.875C12.2678 25.875 13.1349 26.2306 13.7742 26.8635C14.4136 27.4964 14.7727 28.3549 14.7727 29.25C14.7727 30.1451 14.4136 31.0035 13.7742 31.6365C13.1349 32.2694 12.2678 32.625 11.3636 32.625C10.4595 32.625 9.59237 32.2694 8.95304 31.6365C8.31372 31.0035 7.95455 30.1451 7.95455 29.25C7.95455 28.3549 8.31372 27.4964 8.95304 26.8635C9.59237 26.2306 10.4595 25.875 11.3636 25.875ZM38.6364 25.875C39.5405 25.875 40.4076 26.2306 41.047 26.8635C41.6863 27.4964 42.0455 28.3549 42.0455 29.25C42.0455 30.1451 41.6863 31.0035 41.047 31.6365C40.4076 32.2694 39.5405 32.625 38.6364 32.625C37.7322 32.625 36.8651 32.2694 36.2258 31.6365C35.5864 31.0035 35.2273 30.1451 35.2273 29.25C35.2273 28.3549 35.5864 27.4964 36.2258 26.8635C36.8651 26.2306 37.7322 25.875 38.6364 25.875Z" fill="black"/>
</svg>
