<svg width="33" height="35" viewBox="0 0 33 35" fill="none" xmlns="http://www.w3.org/2000/svg">
<path d="M32.8303 31.6785L30.4472 24.5H27.8321L29.2843 31.5H3.71658L5.16878 24.5H2.55378L0.168892 31.6785C-0.436045 33.5055 0.636106 35 2.55378 35H30.4472C32.3648 35 33.437 33.5055 32.8303 31.6785ZM25.2171 8.75C25.2171 6.42936 24.2988 4.20376 22.6641 2.56282C21.0294 0.921872 18.8123 0 16.5005 0C14.1887 0 11.9715 0.921872 10.3368 2.56282C8.70215 4.20376 7.78378 6.42936 7.78378 8.75C7.78378 17.1063 16.5005 26.25 16.5005 26.25C16.5005 26.25 25.2171 17.1063 25.2171 8.75ZM11.7935 8.855C11.7935 6.24575 13.8994 4.13175 16.5005 4.13175C17.7486 4.13175 18.9456 4.62947 19.8282 5.51541C20.7108 6.40136 21.2066 7.60296 21.2066 8.85588C21.2066 10.1088 20.7108 11.3104 19.8282 12.1963C18.9456 13.0823 17.7486 13.58 16.5005 13.58C15.2521 13.58 14.0548 13.0822 13.1721 12.1961C12.2894 11.31 11.7935 10.1081 11.7935 8.855Z" fill="#5B5858"/>
</svg>
