<svg width="90" height="36" viewBox="0 0 90 36" fill="none" xmlns="http://www.w3.org/2000/svg">
<path fill-rule="evenodd" clip-rule="evenodd" d="M0 33.9255H8.26829L27.8958 0H19.6275L0 33.9255Z" fill="#5B5858"/>
<path fill-rule="evenodd" clip-rule="evenodd" d="M10.5093 33.9255H18.7776L38.4051 0H30.1368L10.5093 33.9255Z" fill="#5B5858"/>
<path fill-rule="evenodd" clip-rule="evenodd" d="M39.2695 0.810364L35.9961 6.73724L36.9545 9.57885H44.1236L39.2695 0.810364Z" fill="#5B5858"/>
<path d="M44.2586 11.1064V14.8167H39.5345C38.9183 14.8167 38.4459 14.9679 38.1173 15.2702C37.7886 15.5725 37.6243 15.9779 37.6243 16.4863V23.8244H40.9517C41.4584 23.8244 41.8897 23.6595 42.2457 23.3297C42.6017 22.9999 42.7797 22.5876 42.7797 22.0929C42.7797 21.6257 42.6052 21.2306 42.256 20.9077C41.9068 20.5848 41.4857 20.4233 40.9928 20.4233H38.6307L38.6513 16.7131H41.7322C43.4712 16.7131 44.8679 17.1768 45.9222 18.1044C46.9766 19.032 47.5038 20.3546 47.5038 22.0723C47.5038 23.5977 46.9629 24.8894 45.8812 25.9475C44.7994 27.0056 43.437 27.5347 41.7938 27.5347H33.311V15.6825C33.311 14.5419 33.8211 13.4941 34.8412 12.5391C35.8613 11.584 37.0698 11.1065 38.4664 11.1065H44.2586L44.2586 11.1064ZM62.169 14.8373V27.5346H57.8557V18.5476H55.4731C54.6926 18.5476 54.0456 18.7915 53.5321 19.2759C53.0187 19.7637 52.7619 20.3889 52.7619 21.1551C52.7619 21.9074 53.0255 22.5395 53.5527 23.0548C54.0798 23.5667 54.7337 23.8244 55.5142 23.8244H56.8698V27.5346H54.2202C52.5908 27.5346 51.153 26.875 49.9069 25.5592C48.6609 24.2435 48.0379 22.7594 48.0379 21.1138C48.0379 19.4545 48.63 17.9945 49.8145 16.7302C50.9989 15.4694 52.4538 14.8373 54.1791 14.8373H62.169V14.8373ZM71.802 14.8373H76.1153V33.9591H71.802V23.2678H68.8033V19.5576H71.802V14.8373ZM63.5041 27.5346V14.8373H67.8173V27.5346H63.5041ZM77.2244 14.8373H81.5377V21.8284C81.5377 22.433 81.6404 22.8865 81.8458 23.1854C82.1333 23.6114 82.6263 23.8244 83.3246 23.8244H85.6867V14.8373H89.9999V27.5346H82.2976C80.9283 27.5346 79.7405 27.064 78.7341 26.1261C77.7276 25.1848 77.2244 24.0305 77.2244 22.6563V14.8373V14.8373Z" fill="#5B5858"/>
<path d="M38.7104 31.8392C38.7104 32.4873 38.4543 33.0249 37.9422 33.4532C37.457 33.8578 36.8798 34.0607 36.2104 34.0607C35.5411 34.0607 34.9638 33.8578 34.4786 33.4532C33.9665 33.0249 33.7104 32.4873 33.7104 31.8392C33.7104 31.2001 33.971 30.6625 34.4921 30.2252C34.9818 29.8161 35.5568 29.6109 36.2172 29.6109C36.8685 29.6109 37.4391 29.8161 37.9288 30.2252C38.4499 30.6625 38.7104 31.2001 38.7104 31.8392H38.7104ZM36.2239 30.8282C35.9544 30.8282 35.7264 30.924 35.5399 31.1145C35.3535 31.3061 35.2603 31.5472 35.2603 31.8392C35.2603 32.1311 35.3501 32.3711 35.5299 32.5605C35.7096 32.7487 35.9386 32.8434 36.2172 32.8434C36.4912 32.8434 36.7169 32.7499 36.8944 32.5639C37.0719 32.3768 37.1606 32.1356 37.1606 31.8392C37.1606 31.5563 37.0719 31.3174 36.8944 31.1212C36.7169 30.9262 36.4935 30.8282 36.2239 30.8282H36.2239ZM38.8721 29.7597H43.0635V30.977H41.6753V33.9254H40.2602V30.977H38.8721V29.7597H38.8721ZM45.3883 28.5357H50.5163V35.1562H49.1012V29.7529H46.8034V33.9254H45.3883V28.5357H45.3883ZM55.55 32.7082V33.9254H53.1578C52.5199 33.9254 51.9786 33.7406 51.5338 33.372C51.0576 32.9753 50.8196 32.4602 50.8196 31.8257C50.8196 31.2858 51.0531 30.8068 51.5204 30.3875C51.9876 29.9694 52.5356 29.7597 53.1645 29.7597H55.55V30.9736L54.6066 32.3565H53.0028L54.0001 30.977H53.2724C53.0028 30.977 52.785 31.0559 52.6187 31.2125C52.4525 31.3703 52.3694 31.5698 52.3694 31.8121C52.3694 32.068 52.457 32.281 52.6323 32.4523C52.8075 32.6225 53.0208 32.7082 53.2724 32.7082H55.55L55.55 32.7082ZM55.8735 29.7597H60.0648V30.977H58.6767V33.9254H57.2616V30.977H55.8734V29.7597H55.8735ZM60.368 35.1426V29.7597H63.0365C63.5801 29.7597 64.0462 29.9659 64.4347 30.3774C64.8233 30.7898 65.0176 31.2903 65.0176 31.8798C65.0176 32.4512 64.8222 32.9347 64.4314 33.3314C64.0405 33.727 63.5666 33.9254 63.0095 33.9254H62.1066V32.7082H62.5109C62.7805 32.7082 63.0073 32.6315 63.1915 32.4794C63.3757 32.3261 63.4678 32.1288 63.4678 31.8865C63.4678 31.6532 63.3802 31.4458 63.205 31.2666C63.0163 31.0739 62.7849 30.9769 62.5109 30.9769H61.7832V35.1426H60.368V35.1426ZM69.8357 29.7597V33.9254H68.4206V30.977H67.6389C67.3828 30.977 67.1706 31.057 67.0021 31.2159C66.8337 31.3759 66.7494 31.5811 66.7494 31.8324C66.7494 32.0793 66.8359 32.2866 67.0089 32.4557C67.1818 32.6236 67.3963 32.7082 67.6524 32.7082H68.0971V33.9254H67.2279C66.6932 33.9254 66.2216 33.709 65.8127 33.2773C65.4039 32.8457 65.1995 32.3588 65.1995 31.8189C65.1995 31.2745 65.3938 30.7955 65.7824 30.3807C66.171 29.9671 66.6483 29.7597 67.2144 29.7597H69.8356L69.8357 29.7597Z" fill="#5B5858"/>
</svg>
