<svg width="26" height="46" viewBox="0 0 26 46" fill="none" xmlns="http://www.w3.org/2000/svg">
<path d="M13.9961 20.1889C8.19843 18.6811 6.33399 17.1222 6.33399 14.6944C6.33399 11.9089 8.91356 9.96667 13.2299 9.96667C17.776 9.96667 19.4617 12.1389 19.6149 15.3333H25.2593C25.0805 10.9378 22.3988 6.9 17.0609 5.59667V0H9.39882V5.52C4.44401 6.59333 0.459724 9.81333 0.459724 14.7456C0.459724 20.6489 5.33792 23.5878 12.4637 25.3C18.8487 26.8333 20.1257 29.0822 20.1257 31.4589C20.1257 33.2222 18.8743 36.0333 13.2299 36.0333C7.96856 36.0333 5.8998 33.6822 5.61886 30.6667H0C0.306483 36.2633 4.49509 39.4067 9.39882 40.4544V46H17.0609V40.5056C22.0413 39.56 26 36.6722 26 31.4333C26 24.1756 19.7937 21.6967 13.9961 20.1889Z" fill="#5B5858"/>
</svg>
