<svg width="50" height="38" viewBox="0 0 50 38" fill="none" xmlns="http://www.w3.org/2000/svg">
<path d="M24.3371 9.8582L8.33399 22.7398V36.6427C8.33399 37.0027 8.48031 37.3479 8.74076 37.6025C9.0012 37.857 9.35445 38 9.72277 38L19.4495 37.9754C19.8166 37.9736 20.168 37.8298 20.427 37.5755C20.6859 37.3211 20.8313 36.9769 20.8313 36.6181V28.4989C20.8313 28.139 20.9776 27.7937 21.2381 27.5392C21.4985 27.2846 21.8517 27.1416 22.2201 27.1416H27.7752C28.1435 27.1416 28.4968 27.2846 28.7572 27.5392C29.0177 27.7937 29.164 28.139 29.164 28.4989V36.6122C29.1634 36.7908 29.1989 36.9677 29.2684 37.1329C29.338 37.298 29.4402 37.4482 29.5692 37.5747C29.6982 37.7011 29.8515 37.8015 30.0203 37.87C30.1891 37.9385 30.37 37.9737 30.5528 37.9737L40.276 38C40.6443 38 40.9975 37.857 41.258 37.6025C41.5184 37.3479 41.6648 37.0027 41.6648 36.6427V22.7304L25.6651 9.8582C25.477 9.71002 25.2427 9.62922 25.0011 9.62922C24.7595 9.62922 24.5252 9.71002 24.3371 9.8582ZM49.6155 18.6136L42.3591 12.7679V1.01797C42.3591 0.747988 42.2494 0.489063 42.0541 0.298157C41.8587 0.10725 41.5938 0 41.3176 0H36.4568C36.1806 0 35.9156 0.10725 35.7203 0.298157C35.525 0.489063 35.4152 0.747988 35.4152 1.01797V7.17754L27.6441 0.928898C26.8984 0.329126 25.9626 0.00119895 24.9968 0.00119895C24.031 0.00119895 23.0952 0.329126 22.3494 0.928898L0.378008 18.6136C0.272536 18.6988 0.185276 18.8035 0.121211 18.9216C0.0571465 19.0398 0.017534 19.1692 0.00463693 19.3023C-0.00826017 19.4354 0.00581089 19.5697 0.0460461 19.6976C0.0862813 19.8254 0.151892 19.9442 0.23913 20.0472L2.4525 22.677C2.5395 22.7804 2.64651 22.866 2.76741 22.9289C2.8883 22.9918 3.0207 23.0308 3.15704 23.0437C3.29338 23.0565 3.43096 23.0429 3.56193 23.0038C3.69289 22.9646 3.81467 22.9005 3.92027 22.8153L24.3371 6.38013C24.5252 6.23195 24.7595 6.15115 25.0011 6.15115C25.2427 6.15115 25.477 6.23195 25.6651 6.38013L46.0828 22.8153C46.1882 22.9005 46.3098 22.9647 46.4406 23.004C46.5714 23.0433 46.7088 23.0571 46.845 23.0444C46.9813 23.0318 47.1136 22.9931 47.2345 22.9305C47.3554 22.8679 47.4625 22.7826 47.5497 22.6795L49.7631 20.0498C49.8502 19.9462 49.9156 19.8267 49.9553 19.6983C49.9951 19.57 50.0085 19.4352 49.9948 19.3017C49.9811 19.1682 49.9405 19.0388 49.8754 18.9207C49.8103 18.8026 49.722 18.6982 49.6155 18.6136Z" fill="#5B5858"/>
</svg>
